<mxfile host="app.diagrams.net" modified="2023-02-08T16:54:27.868Z" agent="5.0 (Windows NT 10.0; Win64; x64) AppleWebKit/537.36 (KHTML, like Gecko) Chrome/109.0.0.0 Safari/537.36" etag="63XQyGiGytnUf8e3JNN_" version="20.8.18" type="github">
  <diagram id="C5RBs43oDa-KdzZeNtuy" name="Page-1">
    <mxGraphModel dx="1050" dy="483" grid="1" gridSize="10" guides="1" tooltips="1" connect="1" arrows="1" fold="1" page="1" pageScale="1" pageWidth="827" pageHeight="1169" math="0" shadow="0">
      <root>
        <mxCell id="WIyWlLk6GJQsqaUBKTNV-0" />
        <mxCell id="WIyWlLk6GJQsqaUBKTNV-1" parent="WIyWlLk6GJQsqaUBKTNV-0" />
        <mxCell id="TBOGh352oyX1296FKRRM-0" value="INICIO" style="rounded=1;whiteSpace=wrap;html=1;absoluteArcSize=1;arcSize=14;strokeWidth=2;fillColor=#f5f5f5;fontColor=#333333;strokeColor=#666666;" vertex="1" parent="WIyWlLk6GJQsqaUBKTNV-1">
          <mxGeometry x="70" y="110" width="100" height="100" as="geometry" />
        </mxCell>
        <mxCell id="TBOGh352oyX1296FKRRM-1" value="&lt;font color=&quot;#000000&quot;&gt;Cambiar de ruta relativa a absoluta&lt;/font&gt;" style="rounded=1;whiteSpace=wrap;html=1;strokeWidth=2;fillWeight=4;hachureGap=8;hachureAngle=45;fillColor=#f5f5f5;sketch=1;fillStyle=solid;fontColor=#333333;strokeColor=#666666;" vertex="1" parent="WIyWlLk6GJQsqaUBKTNV-1">
          <mxGeometry x="708" y="110" width="120" height="60" as="geometry" />
        </mxCell>
        <mxCell id="TBOGh352oyX1296FKRRM-2" value="&lt;div&gt;&lt;font color=&quot;#000000&quot;&gt;El path es absoluto o relativo?&lt;/font&gt;&lt;/div&gt;" style="strokeWidth=2;html=1;shape=mxgraph.flowchart.decision;whiteSpace=wrap;fillColor=#f5f5f5;fontColor=#333333;strokeColor=#666666;" vertex="1" parent="WIyWlLk6GJQsqaUBKTNV-1">
          <mxGeometry x="600" y="210" width="130" height="130" as="geometry" />
        </mxCell>
        <mxCell id="TBOGh352oyX1296FKRRM-3" value="&lt;div&gt;El path existe?&lt;/div&gt;" style="strokeWidth=2;html=1;shape=mxgraph.flowchart.decision;whiteSpace=wrap;fillColor=#f5f5f5;fontColor=#333333;strokeColor=#666666;" vertex="1" parent="WIyWlLk6GJQsqaUBKTNV-1">
          <mxGeometry x="440" y="210" width="123" height="130" as="geometry" />
        </mxCell>
        <mxCell id="TBOGh352oyX1296FKRRM-4" value="FIN" style="rounded=1;whiteSpace=wrap;html=1;absoluteArcSize=1;arcSize=14;strokeWidth=2;" vertex="1" parent="WIyWlLk6GJQsqaUBKTNV-1">
          <mxGeometry x="608" y="573" width="100" height="100" as="geometry" />
        </mxCell>
        <mxCell id="TBOGh352oyX1296FKRRM-5" value="Es relativo" style="text;strokeColor=none;align=center;fillColor=none;html=1;verticalAlign=middle;whiteSpace=wrap;rounded=0;strokeWidth=2;" vertex="1" parent="WIyWlLk6GJQsqaUBKTNV-1">
          <mxGeometry x="600" y="150" width="60" height="30" as="geometry" />
        </mxCell>
        <mxCell id="TBOGh352oyX1296FKRRM-6" value="" style="endArrow=classic;html=1;rounded=0;strokeWidth=2;endSize=4;entryX=0.006;entryY=0.493;entryDx=0;entryDy=0;exitX=1;exitY=0.5;exitDx=0;exitDy=0;exitPerimeter=0;entryPerimeter=0;" edge="1" parent="WIyWlLk6GJQsqaUBKTNV-1" source="TBOGh352oyX1296FKRRM-2" target="TBOGh352oyX1296FKRRM-12">
          <mxGeometry width="50" height="50" relative="1" as="geometry">
            <mxPoint x="699" y="278.8299999999999" as="sourcePoint" />
            <mxPoint x="790" y="279" as="targetPoint" />
          </mxGeometry>
        </mxCell>
        <mxCell id="TBOGh352oyX1296FKRRM-7" value="Es absoluto" style="text;strokeColor=none;align=center;fillColor=none;html=1;verticalAlign=middle;whiteSpace=wrap;rounded=0;strokeWidth=2;" vertex="1" parent="WIyWlLk6GJQsqaUBKTNV-1">
          <mxGeometry x="717" y="249" width="88" height="30" as="geometry" />
        </mxCell>
        <mxCell id="TBOGh352oyX1296FKRRM-8" value="" style="endArrow=classic;html=1;rounded=0;strokeWidth=2;endSize=4;exitX=0.5;exitY=0;exitDx=0;exitDy=0;exitPerimeter=0;entryX=0;entryY=0.5;entryDx=0;entryDy=0;" edge="1" parent="WIyWlLk6GJQsqaUBKTNV-1" source="TBOGh352oyX1296FKRRM-2" target="TBOGh352oyX1296FKRRM-1">
          <mxGeometry width="50" height="50" relative="1" as="geometry">
            <mxPoint x="639" y="189.75" as="sourcePoint" />
            <mxPoint x="680" y="140" as="targetPoint" />
            <Array as="points">
              <mxPoint x="665" y="140" />
            </Array>
          </mxGeometry>
        </mxCell>
        <mxCell id="TBOGh352oyX1296FKRRM-9" value="" style="endArrow=classic;html=1;rounded=0;strokeWidth=2;endSize=4;entryX=0.5;entryY=0;entryDx=0;entryDy=0;exitX=0.995;exitY=0.473;exitDx=0;exitDy=0;exitPerimeter=0;entryPerimeter=0;" edge="1" parent="WIyWlLk6GJQsqaUBKTNV-1" source="TBOGh352oyX1296FKRRM-1" target="TBOGh352oyX1296FKRRM-12">
          <mxGeometry width="50" height="50" relative="1" as="geometry">
            <mxPoint x="804.74" y="137.81999999999994" as="sourcePoint" />
            <mxPoint x="850" y="241" as="targetPoint" />
            <Array as="points">
              <mxPoint x="848" y="140" />
            </Array>
          </mxGeometry>
        </mxCell>
        <mxCell id="TBOGh352oyX1296FKRRM-10" value="&lt;font color=&quot;#000000&quot;&gt;Recibe la funcion mdLinks(path, options)&lt;/font&gt;" style="rounded=1;whiteSpace=wrap;html=1;strokeWidth=2;fillWeight=4;hachureGap=8;hachureAngle=45;sketch=1;fillStyle=solid;fillColor=#f5f5f5;fontColor=#333333;strokeColor=#666666;" vertex="1" parent="WIyWlLk6GJQsqaUBKTNV-1">
          <mxGeometry x="60" y="250" width="120" height="60" as="geometry" />
        </mxCell>
        <mxCell id="TBOGh352oyX1296FKRRM-11" value="Esta leyendo el path?" style="rounded=1;whiteSpace=wrap;html=1;strokeWidth=2;fillWeight=4;hachureGap=8;hachureAngle=45;fillColor=#f5f5f5;sketch=1;fillStyle=solid;fontColor=#333333;strokeColor=#666666;" vertex="1" parent="WIyWlLk6GJQsqaUBKTNV-1">
          <mxGeometry x="260" y="245" width="120" height="60" as="geometry" />
        </mxCell>
        <mxCell id="TBOGh352oyX1296FKRRM-12" value="&lt;div&gt;es un archivo&lt;/div&gt;&lt;div&gt;.md?&lt;br&gt;&lt;/div&gt;" style="strokeWidth=2;html=1;shape=mxgraph.flowchart.decision;whiteSpace=wrap;fillColor=#f5f5f5;fontColor=#333333;strokeColor=#666666;" vertex="1" parent="WIyWlLk6GJQsqaUBKTNV-1">
          <mxGeometry x="788" y="210" width="120" height="130" as="geometry" />
        </mxCell>
        <mxCell id="TBOGh352oyX1296FKRRM-13" value="&lt;div&gt;el archivo&lt;/div&gt;&lt;div&gt;contiene&lt;/div&gt;&lt;div&gt;links?&lt;br&gt;&lt;/div&gt;" style="strokeWidth=2;html=1;shape=mxgraph.flowchart.decision;whiteSpace=wrap;fillColor=#f5f5f5;fontColor=#333333;strokeColor=#666666;" vertex="1" parent="WIyWlLk6GJQsqaUBKTNV-1">
          <mxGeometry x="950" y="210" width="120" height="129" as="geometry" />
        </mxCell>
        <mxCell id="TBOGh352oyX1296FKRRM-14" value="&lt;div&gt;&lt;font color=&quot;#000000&quot;&gt;mensaje de error&lt;/font&gt;&lt;/div&gt;&lt;div&gt;&lt;font color=&quot;#000000&quot;&gt;(FIN)&lt;/font&gt;&lt;br&gt;&lt;/div&gt;" style="rounded=0;whiteSpace=wrap;html=1;strokeColor=#666666;strokeWidth=2;fillColor=#f5f5f5;fontColor=#333333;" vertex="1" parent="WIyWlLk6GJQsqaUBKTNV-1">
          <mxGeometry x="650" y="418" width="120" height="60" as="geometry" />
        </mxCell>
        <mxCell id="TBOGh352oyX1296FKRRM-15" value="&lt;font color=&quot;#000000&quot;&gt;Traer los links&lt;/font&gt;" style="rounded=1;whiteSpace=wrap;html=1;strokeWidth=2;fillWeight=4;hachureGap=8;hachureAngle=45;fillColor=#f5f5f5;sketch=1;fillStyle=solid;fontColor=#333333;strokeColor=#666666;" vertex="1" parent="WIyWlLk6GJQsqaUBKTNV-1">
          <mxGeometry x="950" y="593" width="120" height="60" as="geometry" />
        </mxCell>
        <mxCell id="TBOGh352oyX1296FKRRM-16" value="&lt;div&gt;&lt;font color=&quot;#000000&quot;&gt;Los links &lt;br&gt;&lt;/font&gt;&lt;/div&gt;&lt;div&gt;&lt;font color=&quot;#000000&quot;&gt;vÃ¡lidos?&lt;/font&gt;&lt;/div&gt;" style="strokeWidth=2;html=1;shape=mxgraph.flowchart.decision;whiteSpace=wrap;fillColor=#f5f5f5;fontColor=#333333;strokeColor=#666666;" vertex="1" parent="WIyWlLk6GJQsqaUBKTNV-1">
          <mxGeometry x="770" y="563" width="120" height="120" as="geometry" />
        </mxCell>
        <mxCell id="TBOGh352oyX1296FKRRM-17" value="" style="endArrow=classic;html=1;rounded=0;strokeWidth=2;endSize=4;entryX=0.007;entryY=0.504;entryDx=0;entryDy=0;exitX=0.99;exitY=0.498;exitDx=0;exitDy=0;exitPerimeter=0;entryPerimeter=0;" edge="1" parent="WIyWlLk6GJQsqaUBKTNV-1" source="TBOGh352oyX1296FKRRM-3" target="TBOGh352oyX1296FKRRM-2">
          <mxGeometry width="50" height="50" relative="1" as="geometry">
            <mxPoint x="563" y="279.75" as="sourcePoint" />
            <mxPoint x="615.72" y="279.9100000000001" as="targetPoint" />
          </mxGeometry>
        </mxCell>
        <mxCell id="TBOGh352oyX1296FKRRM-18" value="" style="endArrow=classic;html=1;rounded=0;strokeWidth=2;endSize=4;entryX=0;entryY=0.5;entryDx=0;entryDy=0;exitX=0.998;exitY=0.481;exitDx=0;exitDy=0;exitPerimeter=0;entryPerimeter=0;" edge="1" parent="WIyWlLk6GJQsqaUBKTNV-1" source="TBOGh352oyX1296FKRRM-11" target="TBOGh352oyX1296FKRRM-3">
          <mxGeometry width="50" height="50" relative="1" as="geometry">
            <mxPoint x="380" y="278.5" as="sourcePoint" />
            <mxPoint x="432.72" y="278.6600000000001" as="targetPoint" />
          </mxGeometry>
        </mxCell>
        <mxCell id="TBOGh352oyX1296FKRRM-19" value="" style="endArrow=classic;html=1;rounded=0;strokeWidth=2;endSize=4;entryX=0;entryY=0.5;entryDx=0;entryDy=0;exitX=1;exitY=0.5;exitDx=0;exitDy=0;" edge="1" parent="WIyWlLk6GJQsqaUBKTNV-1" source="TBOGh352oyX1296FKRRM-10" target="TBOGh352oyX1296FKRRM-11">
          <mxGeometry width="50" height="50" relative="1" as="geometry">
            <mxPoint x="180" y="279" as="sourcePoint" />
            <mxPoint x="275.24" y="280.14" as="targetPoint" />
          </mxGeometry>
        </mxCell>
        <mxCell id="TBOGh352oyX1296FKRRM-20" value="" style="endArrow=classic;html=1;rounded=0;strokeWidth=2;endSize=4;entryX=0.5;entryY=0;entryDx=0;entryDy=0;exitX=0.5;exitY=1;exitDx=0;exitDy=0;" edge="1" parent="WIyWlLk6GJQsqaUBKTNV-1" source="TBOGh352oyX1296FKRRM-0" target="TBOGh352oyX1296FKRRM-10">
          <mxGeometry width="50" height="50" relative="1" as="geometry">
            <mxPoint x="79.99999999999994" y="230" as="sourcePoint" />
            <mxPoint x="160" y="230" as="targetPoint" />
          </mxGeometry>
        </mxCell>
        <mxCell id="TBOGh352oyX1296FKRRM-21" value="" style="endArrow=classic;html=1;rounded=0;strokeWidth=2;endSize=4;exitX=1;exitY=0.5;exitDx=0;exitDy=0;exitPerimeter=0;entryX=0;entryY=0.5;entryDx=0;entryDy=0;entryPerimeter=0;" edge="1" parent="WIyWlLk6GJQsqaUBKTNV-1" source="TBOGh352oyX1296FKRRM-12" target="TBOGh352oyX1296FKRRM-13">
          <mxGeometry width="50" height="50" relative="1" as="geometry">
            <mxPoint x="848.36" y="338.8" as="sourcePoint" />
            <mxPoint x="848.4799999999999" y="370.2" as="targetPoint" />
          </mxGeometry>
        </mxCell>
        <mxCell id="TBOGh352oyX1296FKRRM-22" value="" style="endArrow=classic;html=1;rounded=0;strokeWidth=2;endSize=4;entryX=0.5;entryY=0;entryDx=0;entryDy=0;exitX=0.5;exitY=0.996;exitDx=0;exitDy=0;exitPerimeter=0;" edge="1" parent="WIyWlLk6GJQsqaUBKTNV-1" source="TBOGh352oyX1296FKRRM-13" target="TBOGh352oyX1296FKRRM-15">
          <mxGeometry width="50" height="50" relative="1" as="geometry">
            <mxPoint x="847.6599999999999" y="489" as="sourcePoint" />
            <mxPoint x="1010.1200000000001" y="391.0799999999999" as="targetPoint" />
          </mxGeometry>
        </mxCell>
        <mxCell id="TBOGh352oyX1296FKRRM-23" value="" style="endArrow=classic;html=1;rounded=0;strokeWidth=2;endSize=4;entryX=1;entryY=0.5;entryDx=0;entryDy=0;entryPerimeter=0;" edge="1" parent="WIyWlLk6GJQsqaUBKTNV-1" target="TBOGh352oyX1296FKRRM-16">
          <mxGeometry width="50" height="50" relative="1" as="geometry">
            <mxPoint x="949" y="623" as="sourcePoint" />
            <mxPoint x="921.6599999999999" y="653" as="targetPoint" />
          </mxGeometry>
        </mxCell>
        <mxCell id="TBOGh352oyX1296FKRRM-24" value="" style="endArrow=classic;html=1;rounded=0;strokeWidth=2;endSize=4;exitX=0;exitY=0.5;exitDx=0;exitDy=0;exitPerimeter=0;" edge="1" parent="WIyWlLk6GJQsqaUBKTNV-1" source="TBOGh352oyX1296FKRRM-16" target="TBOGh352oyX1296FKRRM-4">
          <mxGeometry width="50" height="50" relative="1" as="geometry">
            <mxPoint x="779" y="622.83" as="sourcePoint" />
            <mxPoint x="709" y="623" as="targetPoint" />
          </mxGeometry>
        </mxCell>
        <mxCell id="TBOGh352oyX1296FKRRM-25" value="SI" style="text;strokeColor=none;align=center;fillColor=none;html=1;verticalAlign=middle;whiteSpace=wrap;rounded=0;strokeWidth=2;" vertex="1" parent="WIyWlLk6GJQsqaUBKTNV-1">
          <mxGeometry x="569" y="250" width="29" height="30" as="geometry" />
        </mxCell>
        <mxCell id="TBOGh352oyX1296FKRRM-26" value="" style="endArrow=classic;html=1;rounded=0;strokeWidth=2;endSize=4;exitX=0.5;exitY=1;exitDx=0;exitDy=0;exitPerimeter=0;entryX=0;entryY=0.5;entryDx=0;entryDy=0;" edge="1" parent="WIyWlLk6GJQsqaUBKTNV-1" source="TBOGh352oyX1296FKRRM-3" target="TBOGh352oyX1296FKRRM-14">
          <mxGeometry width="50" height="50" relative="1" as="geometry">
            <mxPoint x="510" y="430" as="sourcePoint" />
            <mxPoint x="542" y="351" as="targetPoint" />
            <Array as="points">
              <mxPoint x="503" y="448" />
            </Array>
          </mxGeometry>
        </mxCell>
        <mxCell id="TBOGh352oyX1296FKRRM-27" value="NO" style="text;strokeColor=none;align=center;fillColor=none;html=1;verticalAlign=middle;whiteSpace=wrap;rounded=0;strokeWidth=2;" vertex="1" parent="WIyWlLk6GJQsqaUBKTNV-1">
          <mxGeometry x="500" y="383" width="29" height="30" as="geometry" />
        </mxCell>
        <mxCell id="TBOGh352oyX1296FKRRM-28" value="NO" style="text;strokeColor=none;align=center;fillColor=none;html=1;verticalAlign=middle;whiteSpace=wrap;rounded=0;strokeWidth=2;" vertex="1" parent="WIyWlLk6GJQsqaUBKTNV-1">
          <mxGeometry x="788" y="340" width="60" height="30" as="geometry" />
        </mxCell>
        <mxCell id="TBOGh352oyX1296FKRRM-29" value="SI" style="text;strokeColor=none;align=center;fillColor=none;html=1;verticalAlign=middle;whiteSpace=wrap;rounded=0;strokeWidth=2;" vertex="1" parent="WIyWlLk6GJQsqaUBKTNV-1">
          <mxGeometry x="1010" y="413" width="29" height="30" as="geometry" />
        </mxCell>
        <mxCell id="TBOGh352oyX1296FKRRM-30" value="" style="endArrow=none;html=1;rounded=0;strokeWidth=2;endSize=6;entryX=0.252;entryY=0.751;entryDx=0;entryDy=0;entryPerimeter=0;" edge="1" parent="WIyWlLk6GJQsqaUBKTNV-1" target="TBOGh352oyX1296FKRRM-13">
          <mxGeometry width="50" height="50" relative="1" as="geometry">
            <mxPoint x="849" y="390" as="sourcePoint" />
            <mxPoint x="979" y="310" as="targetPoint" />
            <Array as="points">
              <mxPoint x="899" y="390" />
            </Array>
          </mxGeometry>
        </mxCell>
        <mxCell id="TBOGh352oyX1296FKRRM-31" value="NO" style="text;strokeColor=none;align=center;fillColor=none;html=1;verticalAlign=middle;whiteSpace=wrap;rounded=0;strokeWidth=2;" vertex="1" parent="WIyWlLk6GJQsqaUBKTNV-1">
          <mxGeometry x="921" y="320" width="29" height="30" as="geometry" />
        </mxCell>
        <mxCell id="TBOGh352oyX1296FKRRM-32" value="" style="endArrow=classic;html=1;rounded=0;strokeWidth=1;endSize=6;" edge="1" parent="WIyWlLk6GJQsqaUBKTNV-1">
          <mxGeometry width="50" height="50" relative="1" as="geometry">
            <mxPoint x="940" y="349" as="sourcePoint" />
            <mxPoint x="920" y="369" as="targetPoint" />
          </mxGeometry>
        </mxCell>
        <mxCell id="TBOGh352oyX1296FKRRM-33" value="SI" style="text;strokeColor=none;align=center;fillColor=none;html=1;verticalAlign=middle;whiteSpace=wrap;rounded=0;strokeWidth=2;" vertex="1" parent="WIyWlLk6GJQsqaUBKTNV-1">
          <mxGeometry x="908" y="250" width="29" height="30" as="geometry" />
        </mxCell>
        <mxCell id="TBOGh352oyX1296FKRRM-34" value="" style="endArrow=classic;html=1;rounded=0;strokeWidth=2;endSize=4;entryX=0.995;entryY=0.534;entryDx=0;entryDy=0;exitX=1;exitY=0;exitDx=0;exitDy=0;entryPerimeter=0;" edge="1" parent="WIyWlLk6GJQsqaUBKTNV-1" source="TBOGh352oyX1296FKRRM-28" target="TBOGh352oyX1296FKRRM-14">
          <mxGeometry width="50" height="50" relative="1" as="geometry">
            <mxPoint x="828.0000000000001" y="440.3800000000001" as="sourcePoint" />
            <mxPoint x="848.6" y="522" as="targetPoint" />
            <Array as="points">
              <mxPoint x="849" y="450" />
            </Array>
          </mxGeometry>
        </mxCell>
      </root>
    </mxGraphModel>
  </diagram>
</mxfile>
